# File created by Blade
# Date/Time:  Wed Sep 24 20:21:23 2014
# Frame Rate: 120.000 fps
#------------------------------------------------------
:FULLY-SPECIFIED
:DEGREES
883
root -7.928652 33.308493 -6.191949 13.479763 21.300374 33.812765
Spine 20.524839 -16.565886 -39.107525
Head -37.037925 -3.316201 13.977624
LeftShoulder 13.298304 -6.108263 14.129898
LeftArm 20.888761 -21.486834 -52.305181
LeftForeArm -92.523002 -0.000000 -6.501854
LeftHand -9.950867 0.000000 -36.890536
LeftHandThumb1 -26.253704 0.000000 33.147579
RightShoulder -18.639046 20.713623 -32.178955
RightArm -9.602799 3.344123 25.191891
RightForeArm -20.797501 0.000000 10.477677
RightHand -6.430776 -0.000000 11.021491
RightHandThumb1 -24.326973 -0.000000 -32.862282
LeftUpLeg -140.396726 24.369359 -36.633932
LeftLeg 95.479720 -0.000000 -0.000000
LeftFoot 32.051256 33.773454 -14.620235
LeftToeBase 9.576558 -0.000000 -0.000000
RightUpLeg -14.881248 -5.972569 -24.163137
RightLeg 33.033609 -0.000000 -0.000000
RightFoot -16.670192 -31.437559 -7.536100
RightToeBase 0.101631 -0.000000 -0.000000
884
root -7.919307 33.303983 -6.205374 13.313267 21.041959 33.559141
Spine 20.810953 -16.454185 -38.965107
Head -37.655010 -3.009530 13.964709
LeftShoulder 13.213348 -5.944784 14.020810
LeftArm 21.166331 -20.414769 -52.702593
LeftForeArm -93.960180 -0.000000 -7.016404
LeftHand -10.752703 -0.000000 -36.672435
LeftHandThumb1 -26.253704 0.000000 33.147579
RightShoulder -18.650404 20.674262 -32.156806
RightArm -9.487490 3.232571 25.357751
RightForeArm -20.656222 -0.000000 10.437738
RightHand -6.330545 -0.000000 10.973469
RightHandThumb1 -24.326973 -0.000000 -32.862282
LeftUpLeg -139.973085 24.592100 -36.470764
LeftLeg 96.367794 -0.000000 -0.000000
LeftFoot 31.664924 34.076203 -15.031215
LeftToeBase 9.141179 -0.000000 -0.000000
RightUpLeg -14.977237 -5.862581 -24.004143
RightLeg 33.010095 -0.000000 -0.000000
RightFoot -16.618577 -31.274375 -7.631467
RightToeBase 0.063626 -0.000000 -0.000000
885
root -7.911768 33.297720 -6.221407 13.188175 20.792075 33.290207
Spine 21.025415 -16.339637 -38.799344
Head -38.163202 -2.744436 13.999677
LeftShoulder 13.202519 -5.697577 13.898036
LeftArm 21.428010 -19.642474 -53.180157
LeftForeArm -94.463002 -0.000000 -7.254763
LeftHand -10.885388 -0.000000 -36.526438
LeftHandThumb1 -26.253704 0.000000 33.147579
RightShoulder -18.646827 20.634895 -32.161803
RightArm -9.467736 3.275390 25.535698
RightForeArm -20.703807 -0.000000 10.442357
RightHand -6.520627 0.000000 11.031936
RightHandThumb1 -24.326973 -0.000000 -32.862282
LeftUpLeg -139.573137 24.653096 -36.394741
LeftLeg 97.259252 -0.000000 -0.000000
LeftFoot 31.268192 34.146443 -14.446813
LeftToeBase 9.023667 -0.000000 -0.000000
RightUpLeg -15.127949 -5.780330 -23.820607
RightLeg 33.002190 -0.000000 -0.000000
RightFoot -16.603311 -31.072912 -7.665743
RightToeBase 0.010891 -0.000000 -0.000000
886
root -7.905501 33.290797 -6.233744 13.079769 20.558842 33.025412
Spine 21.218792 -16.250799 -38.638758
Head -38.638689 -2.506727 14.060060
LeftShoulder 13.190147 -5.564357 13.698669
LeftArm 21.634120 -18.496194 -53.467727
LeftForeArm -95.695382 -0.000000 -7.752907
LeftHand -11.237229 -0.000000 -36.370403
LeftHandThumb1 -26.253704 0.000000 33.147579
RightShoulder -18.649955 20.631501 -32.142871
RightArm -9.433143 3.254812 25.678111
RightForeArm -20.745098 -0.000000 10.395112
RightHand -6.496821 -0.000000 10.979517
RightHandThumb1 -24.326973 -0.000000 -32.862282
LeftUpLeg -139.149693 24.782826 -36.245795
LeftLeg 98.120489 -0.000000 -0.000000
LeftFoot 31.098936 33.835274 -13.783190
LeftToeBase 9.316297 -0.000000 -0.000000
RightUpLeg -15.275365 -5.691692 -23.628549
RightLeg 32.992962 -0.000000 -0.000000
RightFoot -16.566584 -30.920521 -7.727474
RightToeBase -0.019366 -0.000000 0.000000
887
root -7.897142 33.284521 -6.249706 12.997186 20.298486 32.762959
Spine 21.356259 -16.147423 -38.464149
Head -39.066064 -2.280364 14.081135
LeftShoulder 13.188467 -5.423750 13.502669
LeftArm 21.858867 -17.537302 -53.825760
LeftForeArm -97.425912 -0.000000 -8.278969
LeftHand -12.178861 -0.000000 -36.117402
LeftHandThumb1 -26.253704 0.000000 33.147579
RightShoulder -18.624819 20.564793 -32.098298
RightArm -9.390050 3.273436 25.799761
RightForeArm -20.746233 -0.000000 10.328465
RightHand -6.394587 -0.000000 11.017008
RightHandThumb1 -24.326973 -0.000000 -32.862282
LeftUpLeg -138.733173 24.928932 -36.089262
LeftLeg 98.982744 -0.000000 -0.000000
LeftFoot 30.644513 33.521268 -13.438328
LeftToeBase 9.812297 -0.000000 -0.000000
RightUpLeg -15.467327 -5.604753 -23.448198
RightLeg 32.998409 -0.000000 -0.000000
RightFoot -16.510342 -30.763026 -7.805355
RightToeBase -0.093587 -0.000000 0.000000
888
root -7.884697 33.278524 -6.263817 12.910320 20.050573 32.520406
Spine 21.496790 -16.060019 -38.310414
Head -39.445641 -2.093778 14.151375
LeftShoulder 13.149254 -5.346619 13.368736
LeftArm 22.094649 -16.552397 -54.363765
LeftForeArm -98.619104 -0.000000 -8.674141
LeftHand -12.443317 -0.000000 -35.664100
LeftHandThumb1 -26.253704 0.000000 33.147579
RightShoulder -18.619375 20.531146 -32.057091
RightArm -9.335914 3.244240 25.918924
RightForeArm -20.761787 -0.000000 10.300846
RightHand -6.350712 -0.000000 11.074798
RightHandThumb1 -24.326973 -0.000000 -32.862282
LeftUpLeg -138.250746 25.103321 -35.874503
LeftLeg 99.817299 -0.000000 -0.000000
LeftFoot 30.150473 33.237600 -13.384733
LeftToeBase 9.834023 -0.000000 -0.000000
RightUpLeg -15.633541 -5.522048 -23.285037
RightLeg 32.999326 -0.000000 -0.000000
RightFoot -16.437729 -30.635392 -7.924969
RightToeBase -0.139185 -0.000000 0.000000
889
root -7.872065 33.272941 -6.276639 12.823369 19.823616 32.285589
Spine 21.653997 -15.957307 -38.174204
Head -39.812601 -1.818286 14.278114
LeftShoulder 13.122541 -5.118213 13.379188
LeftArm 22.411123 -16.126489 -55.268300
LeftForeArm -99.152819 -0.000000 -8.660739
LeftHand -12.122840 -0.000000 -34.466610
LeftHandThumb1 -26.253704 0.000000 33.147579
RightShoulder -18.627882 20.487161 -32.007820
RightArm -9.312106 3.087270 26.058152
RightForeArm -20.692102 -0.000000 10.317040
RightHand -6.404558 -0.000000 10.960923
RightHandThumb1 -24.326973 -0.000000 -32.862282
LeftUpLeg -137.703812 25.379138 -35.550614
LeftLeg 100.621825 -0.000000 -0.000000
LeftFoot 29.477932 32.985453 -14.155825
LeftToeBase 9.790755 -0.000000 -0.000000
RightUpLeg -15.776305 -5.441775 -23.129063
RightLeg 32.996810 -0.000000 -0.000000
RightFoot -16.400546 -30.490190 -8.007564
RightToeBase -0.164308 -0.000000 0.000000
890
root -7.860248 33.265586 -6.288310 12.734848 19.588782 32.026296
Spine 21.781525 -15.903101 -38.020498
Head -40.148903 -1.712221 14.355189
LeftShoulder 13.117066 -5.005506 13.333142
LeftArm 22.593417 -15.337336 -55.896718
LeftForeArm -101.236358 -0.000000 -9.072350
LeftHand -12.924049 -0.000000 -33.850203
LeftHandThumb1 -26.253704 0.000000 33.147579
RightShoulder -18.551875 20.459669 -31.971624
RightArm -9.330218 3.189470 26.201265
RightForeArm -20.968036 -0.000000 10.353918
RightHand -6.641355 -0.000000 11.026771
RightHandThumb1 -24.326973 -0.000000 -32.862282
LeftUpLeg -137.157641 25.631658 -35.218786
LeftLeg 101.426810 -0.000000 -0.000000
LeftFoot 28.552039 33.064429 -15.162004
LeftToeBase 9.670421 -0.000000 -0.000000
RightUpLeg -15.925043 -5.348233 -22.947546
RightLeg 33.000848 -0.000000 -0.000000
RightFoot -16.254254 -30.447910 -8.235539
RightToeBase -0.357864 -0.000000 0.000000
891
root -7.850955 33.257941 -6.301880 12.666018 19.381307 31.748197
Spine 21.885979 -15.864033 -37.829471
Head -40.424157 -1.513343 14.429337
LeftShoulder 13.113755 -4.808185 13.326636
LeftArm 22.920440 -15.041750 -56.790592
LeftForeArm -102.824447 0.000000 -9.409566
LeftHand -13.409006 -0.000000 -32.979966
LeftHandThumb1 -26.253704 0.000000 33.147579
RightShoulder -18.533194 20.465118 -31.928664
RightArm -9.331016 3.080732 26.325155
RightForeArm -20.887800 -0.000000 10.366031
RightHand -6.618251 -0.000000 11.054198
RightHandThumb1 -24.326973 -0.000000 -32.862282
LeftUpLeg -136.581618 25.834976 -34.853055
LeftLeg 102.186803 -0.000000 -0.000000
LeftFoot 27.523822 33.169199 -16.186564
LeftToeBase 9.551312 -0.000000 -0.000000
RightUpLeg -16.092790 -5.304196 -22.731789
RightLeg 32.977703 -0.000000 -0.000000
RightFoot -16.317725 -30.221483 -8.177936
RightToeBase -0.231227 -0.000000 0.000000
892
root -7.841035 33.250395 -6.314156 12.608557 19.184376 31.442330
Spine 21.975692 -15.831016 -37.623993
Head -40.701505 -1.253975 14.618754
LeftShoulder 13.070585 -4.614036 13.412652
LeftArm 23.312442 -14.823319 -57.847577
LeftForeArm -104.462975 -0.000000 -9.645182
LeftHand -15.388746 0.000000 -31.650031
LeftHandThumb1 -26.253704 0.000000 33.147579
RightShoulder -18.513907 20.399040 -31.751613
RightArm -9.221819 2.981651 26.358527
RightForeArm -20.801014 -0.000000 10.329367
RightHand -6.589106 -0.000000 11.070882
RightHandThumb1 -24.326973 -0.000000 -32.862282
LeftUpLeg -136.046883 25.929179 -34.567716
LeftLeg 102.945826 -0.000000 -0.000000
LeftFoot 26.526763 33.168735 -16.516302
LeftToeBase 9.660998 -0.000000 -0.000000
RightUpLeg -16.265818 -5.205160 -22.494391
RightLeg 32.959666 -0.000000 -0.000000
RightFoot -16.322736 -30.059855 -8.058681
RightToeBase -0.346866 -0.000000 0.000000
893
root -7.828307 33.243820 -6.331595 12.588891 19.022555 31.211926
Spine 22.060989 -15.856322 -37.477603
Head -40.890193 -1.039014 14.767616
LeftShoulder 12.998981 -4.495544 13.431728
LeftArm 23.739870 -14.230412 -58.724893
LeftForeArm -106.740105 0.000000 -10.092595
LeftHand -17.158186 -0.000000 -29.968551
LeftHandThumb1 -26.253704 0.000000 33.147579
RightShoulder -18.523548 20.441736 -31.709132
RightArm -9.169594 2.906953 26.476655
RightForeArm -20.831043 0.000000 10.287118
RightHand -6.592472 -0.000000 11.045728
RightHandThumb1 -24.326973 -0.000000 -32.862282
LeftUpLeg -135.448298 26.028612 -34.279241
LeftLeg 103.597572 -0.000000 -0.000000
LeftFoot 25.686285 33.121234 -17.178872
LeftToeBase 9.604678 -0.000000 -0.000000
RightUpLeg -16.444235 -5.114897 -22.325093
RightLeg 32.965882 -0.000000 -0.000000
RightFoot -16.223518 -30.014366 -8.225131
RightToeBase -0.305357 -0.000000 0.000000
894
root -7.817276 33.234925 -6.345308 12.547648 18.880105 30.942539
Spine 22.143213 -15.865195 -37.238117
Head -41.066285 -0.875009 14.813787
LeftShoulder 12.941631 -4.326418 13.340394
LeftArm 24.358121 -13.691076 -59.550491
LeftForeArm -109.306330 -0.000000 -10.661970
LeftHand -19.571594 -0.000000 -28.098241
LeftHandThumb1 -26.253704 0.000000 33.147579
RightShoulder -18.539391 20.428029 -31.742540
RightArm -9.173032 2.825123 26.650568
RightForeArm -20.867677 -0.000000 10.266657
RightHand -6.576327 -0.000000 10.885758
RightHandThumb1 -24.326973 -0.000000 -32.862282
LeftUpLeg -134.824002 26.120943 -33.930851
LeftLeg 104.153906 -0.000000 -0.000000
LeftFoot 24.973870 33.191103 -17.882242
LeftToeBase 9.163531 -0.000000 -0.000000
RightUpLeg -16.605450 -5.048767 -22.113920
RightLeg 32.979602 -0.000000 -0.000000
RightFoot -16.209355 -29.907507 -8.217825
RightToeBase -0.319719 -0.000000 0.000000
895
root -7.807898 33.227688 -6.356531 12.515372 18.739730 30.666261
Spine 22.205272 -15.816985 -37.032813
Head -41.215683 -0.697705 15.076800
LeftShoulder 12.898022 -4.208610 13.394328
LeftArm 24.957566 -13.837731 -60.810593
LeftForeArm -111.073286 -0.000000 -10.838997
LeftHand -21.411323 -0.000000 -25.839166
LeftHandThumb1 -26.253704 0.000000 33.147579
RightShoulder -18.544171 20.383895 -31.582258
RightArm -9.166815 2.735119 26.652730
RightForeArm -20.770376 0.000000 10.264911
RightHand -6.487084 -0.000000 10.954351
RightHandThumb1 -24.326973 -0.000000 -32.862282
LeftUpLeg -134.190307 26.158218 -33.637794
LeftLeg 104.637625 -0.000000 -0.000000
LeftFoot 24.334930 33.222316 -18.127207
LeftToeBase 8.783024 -0.000000 -0.000000
RightUpLeg -16.765304 -4.959483 -21.893521
RightLeg 32.992763 -0.000000 -0.000000
RightFoot -16.055761 -29.898165 -8.366397
RightToeBase -0.510963 -0.000000 0.000000
